%TF.GenerationSoftware,KiCad,Pcbnew,5.1.7-a382d34a8~87~ubuntu20.04.1*%
%TF.CreationDate,2020-11-25T21:12:42+01:00*%
%TF.ProjectId,gd32f150,67643332-6631-4353-902e-6b696361645f,rev?*%
%TF.SameCoordinates,Original*%
%TF.FileFunction,Copper,L2,Bot*%
%TF.FilePolarity,Positive*%
%FSLAX46Y46*%
G04 Gerber Fmt 4.6, Leading zero omitted, Abs format (unit mm)*
G04 Created by KiCad (PCBNEW 5.1.7-a382d34a8~87~ubuntu20.04.1) date 2020-11-25 21:12:42*
%MOMM*%
%LPD*%
G01*
G04 APERTURE LIST*
%TA.AperFunction,ComponentPad*%
%ADD10O,1.700000X1.700000*%
%TD*%
%TA.AperFunction,ComponentPad*%
%ADD11R,1.700000X1.700000*%
%TD*%
%TA.AperFunction,ComponentPad*%
%ADD12O,1.550000X0.890000*%
%TD*%
%TA.AperFunction,ComponentPad*%
%ADD13O,0.950000X1.250000*%
%TD*%
%TA.AperFunction,ViaPad*%
%ADD14C,0.800000*%
%TD*%
%TA.AperFunction,Conductor*%
%ADD15C,0.200000*%
%TD*%
%TA.AperFunction,Conductor*%
%ADD16C,0.400000*%
%TD*%
%TA.AperFunction,Conductor*%
%ADD17C,0.254000*%
%TD*%
%TA.AperFunction,Conductor*%
%ADD18C,0.100000*%
%TD*%
G04 APERTURE END LIST*
D10*
%TO.P,J4,11*%
%TO.N,+5V*%
X168725000Y-84350000D03*
%TO.P,J4,10*%
%TO.N,GND*%
X166185000Y-84350000D03*
%TO.P,J4,9*%
%TO.N,/SWD*%
X163645000Y-84350000D03*
%TO.P,J4,8*%
%TO.N,/SWCLK*%
X161105000Y-84350000D03*
%TO.P,J4,7*%
%TO.N,/CS*%
X158565000Y-84350000D03*
%TO.P,J4,6*%
%TO.N,/SCK*%
X156025000Y-84350000D03*
%TO.P,J4,5*%
%TO.N,/MISO*%
X153485000Y-84350000D03*
%TO.P,J4,4*%
%TO.N,/MOSI*%
X150945000Y-84350000D03*
%TO.P,J4,3*%
%TO.N,/SPI_GPIO1*%
X148405000Y-84350000D03*
%TO.P,J4,2*%
%TO.N,/SPI_GPIO2*%
X145865000Y-84350000D03*
D11*
%TO.P,J4,1*%
%TO.N,/BOOT*%
X143325000Y-84350000D03*
%TD*%
D10*
%TO.P,J3,11*%
%TO.N,/SDA*%
X168725000Y-105900000D03*
%TO.P,J3,10*%
%TO.N,/SCL*%
X166185000Y-105900000D03*
%TO.P,J3,9*%
%TO.N,/SPI_GPIO4*%
X163645000Y-105900000D03*
%TO.P,J3,8*%
%TO.N,/SPI_GPIO3*%
X161105000Y-105900000D03*
%TO.P,J3,7*%
%TO.N,/I2C_GPIO2*%
X158565000Y-105900000D03*
%TO.P,J3,6*%
%TO.N,/I2C_GPIO1*%
X156025000Y-105900000D03*
%TO.P,J3,5*%
%TO.N,/UART_RX*%
X153485000Y-105900000D03*
%TO.P,J3,4*%
%TO.N,/UART_TX*%
X150945000Y-105900000D03*
%TO.P,J3,3*%
%TO.N,/UART_RTS*%
X148405000Y-105900000D03*
%TO.P,J3,2*%
%TO.N,/UART_CTS*%
X145865000Y-105900000D03*
D11*
%TO.P,J3,1*%
%TO.N,/NRST*%
X143325000Y-105900000D03*
%TD*%
D12*
%TO.P,J1,6*%
%TO.N,GND*%
X169727400Y-91790320D03*
X169727400Y-98790320D03*
D13*
X167027400Y-92790320D03*
X167027400Y-97790320D03*
%TD*%
D14*
%TO.N,GND*%
X157475000Y-96925000D03*
X156150000Y-96875000D03*
X157425000Y-95650000D03*
X156100000Y-95675000D03*
%TO.N,+3V3*%
X166225000Y-101800000D03*
%TO.N,GND*%
X161775000Y-96675000D03*
X163975000Y-100150000D03*
X160675000Y-102700000D03*
X149925000Y-90050000D03*
X146175000Y-95800000D03*
X147525000Y-96950000D03*
X147500000Y-98475000D03*
X164700000Y-87200000D03*
X163075000Y-87175000D03*
X161325000Y-87250000D03*
X144650000Y-94250000D03*
X169700000Y-101450000D03*
%TO.N,/NRST*%
X149475000Y-99750000D03*
X152000000Y-96725000D03*
%TO.N,+3V3*%
X160000000Y-93775000D03*
X160625000Y-98175000D03*
X153187500Y-97037500D03*
%TO.N,/USR1*%
X159025663Y-99575669D03*
X165275000Y-94525000D03*
%TO.N,/USR2*%
X158075741Y-99562571D03*
X162325000Y-94700000D03*
%TD*%
D15*
%TO.N,GND*%
X163774998Y-94675002D02*
X163774998Y-94337998D01*
X161775000Y-96675000D02*
X163774998Y-94675002D01*
X163774998Y-94337998D02*
X165322676Y-92790320D01*
X165322676Y-92790320D02*
X167027400Y-92790320D01*
D16*
%TO.N,+3V3*%
X164250000Y-101800000D02*
X160625000Y-98175000D01*
X166225000Y-101800000D02*
X164250000Y-101800000D01*
X156425007Y-100275007D02*
X153187500Y-97037500D01*
D15*
X156425007Y-100275007D02*
X156924993Y-100275007D01*
D16*
X160000000Y-96300000D02*
X160000000Y-93775000D01*
X156925000Y-99375000D02*
X160000000Y-96300000D01*
X156925000Y-100275000D02*
X156925000Y-99375000D01*
X156924993Y-100275007D02*
X156925000Y-100275000D01*
X156750000Y-100600000D02*
X156425007Y-100275007D01*
X160625000Y-99037008D02*
X159062008Y-100600000D01*
X160625000Y-98175000D02*
X160625000Y-99037008D01*
X159062008Y-100600000D02*
X156750000Y-100600000D01*
D15*
%TO.N,/NRST*%
X149475000Y-99250000D02*
X149475000Y-99750000D01*
X152000000Y-96725000D02*
X149475000Y-99250000D01*
%TO.N,/USR1*%
X159025663Y-98824337D02*
X160524999Y-97325001D01*
X159025663Y-99575669D02*
X159025663Y-98824337D01*
X162474999Y-97325001D02*
X165275000Y-94525000D01*
X160524999Y-97325001D02*
X162474999Y-97325001D01*
%TO.N,/USR2*%
X158075741Y-99562571D02*
X158075741Y-98949259D01*
X158075741Y-98949259D02*
X162325000Y-94700000D01*
%TD*%
D17*
%TO.N,GND*%
X141944463Y-83145506D02*
X141885498Y-83255820D01*
X141849188Y-83375518D01*
X141836928Y-83500000D01*
X141836928Y-85200000D01*
X141849188Y-85324482D01*
X141885498Y-85444180D01*
X141944463Y-85554494D01*
X142023815Y-85651185D01*
X142120506Y-85730537D01*
X142230820Y-85789502D01*
X142350518Y-85825812D01*
X142475000Y-85838072D01*
X144175000Y-85838072D01*
X144299482Y-85825812D01*
X144419180Y-85789502D01*
X144529494Y-85730537D01*
X144626185Y-85651185D01*
X144705537Y-85554494D01*
X144764502Y-85444180D01*
X144786513Y-85371620D01*
X144918368Y-85503475D01*
X145161589Y-85665990D01*
X145431842Y-85777932D01*
X145718740Y-85835000D01*
X146011260Y-85835000D01*
X146298158Y-85777932D01*
X146568411Y-85665990D01*
X146811632Y-85503475D01*
X147018475Y-85296632D01*
X147135000Y-85122240D01*
X147251525Y-85296632D01*
X147458368Y-85503475D01*
X147701589Y-85665990D01*
X147971842Y-85777932D01*
X148258740Y-85835000D01*
X148551260Y-85835000D01*
X148838158Y-85777932D01*
X149108411Y-85665990D01*
X149351632Y-85503475D01*
X149558475Y-85296632D01*
X149675000Y-85122240D01*
X149791525Y-85296632D01*
X149998368Y-85503475D01*
X150241589Y-85665990D01*
X150511842Y-85777932D01*
X150798740Y-85835000D01*
X151091260Y-85835000D01*
X151378158Y-85777932D01*
X151648411Y-85665990D01*
X151891632Y-85503475D01*
X152098475Y-85296632D01*
X152215000Y-85122240D01*
X152331525Y-85296632D01*
X152538368Y-85503475D01*
X152781589Y-85665990D01*
X153051842Y-85777932D01*
X153338740Y-85835000D01*
X153631260Y-85835000D01*
X153918158Y-85777932D01*
X154188411Y-85665990D01*
X154431632Y-85503475D01*
X154638475Y-85296632D01*
X154755000Y-85122240D01*
X154871525Y-85296632D01*
X155078368Y-85503475D01*
X155321589Y-85665990D01*
X155591842Y-85777932D01*
X155878740Y-85835000D01*
X156171260Y-85835000D01*
X156458158Y-85777932D01*
X156728411Y-85665990D01*
X156971632Y-85503475D01*
X157178475Y-85296632D01*
X157295000Y-85122240D01*
X157411525Y-85296632D01*
X157618368Y-85503475D01*
X157861589Y-85665990D01*
X158131842Y-85777932D01*
X158418740Y-85835000D01*
X158711260Y-85835000D01*
X158998158Y-85777932D01*
X159268411Y-85665990D01*
X159511632Y-85503475D01*
X159718475Y-85296632D01*
X159835000Y-85122240D01*
X159951525Y-85296632D01*
X160158368Y-85503475D01*
X160401589Y-85665990D01*
X160671842Y-85777932D01*
X160958740Y-85835000D01*
X161251260Y-85835000D01*
X161538158Y-85777932D01*
X161808411Y-85665990D01*
X162051632Y-85503475D01*
X162258475Y-85296632D01*
X162375000Y-85122240D01*
X162491525Y-85296632D01*
X162698368Y-85503475D01*
X162941589Y-85665990D01*
X163211842Y-85777932D01*
X163498740Y-85835000D01*
X163791260Y-85835000D01*
X164078158Y-85777932D01*
X164348411Y-85665990D01*
X164591632Y-85503475D01*
X164798475Y-85296632D01*
X164920195Y-85114466D01*
X164989822Y-85231355D01*
X165184731Y-85447588D01*
X165418080Y-85621641D01*
X165680901Y-85746825D01*
X165828110Y-85791476D01*
X166058000Y-85670155D01*
X166058000Y-84477000D01*
X166038000Y-84477000D01*
X166038000Y-84223000D01*
X166058000Y-84223000D01*
X166058000Y-84203000D01*
X166312000Y-84203000D01*
X166312000Y-84223000D01*
X166332000Y-84223000D01*
X166332000Y-84477000D01*
X166312000Y-84477000D01*
X166312000Y-85670155D01*
X166541890Y-85791476D01*
X166689099Y-85746825D01*
X166951920Y-85621641D01*
X167185269Y-85447588D01*
X167380178Y-85231355D01*
X167449805Y-85114466D01*
X167571525Y-85296632D01*
X167778368Y-85503475D01*
X168021589Y-85665990D01*
X168291842Y-85777932D01*
X168578740Y-85835000D01*
X168871260Y-85835000D01*
X169158158Y-85777932D01*
X169428411Y-85665990D01*
X169671632Y-85503475D01*
X169878475Y-85296632D01*
X170040990Y-85053411D01*
X170152932Y-84783158D01*
X170210000Y-84496260D01*
X170210000Y-84203740D01*
X170152932Y-83916842D01*
X170040990Y-83646589D01*
X169878475Y-83403368D01*
X169671632Y-83196525D01*
X169528339Y-83100780D01*
X170553647Y-83100780D01*
X170552080Y-90825437D01*
X170392657Y-90755848D01*
X170184400Y-90710320D01*
X169854400Y-90710320D01*
X169854400Y-91663320D01*
X169874400Y-91663320D01*
X169874400Y-91917320D01*
X169854400Y-91917320D01*
X169854400Y-92870320D01*
X170184400Y-92870320D01*
X170392657Y-92824792D01*
X170551688Y-92755374D01*
X170550660Y-97824817D01*
X170392657Y-97755848D01*
X170184400Y-97710320D01*
X169854400Y-97710320D01*
X169854400Y-98663320D01*
X169874400Y-98663320D01*
X169874400Y-98917320D01*
X169854400Y-98917320D01*
X169854400Y-99870320D01*
X170184400Y-99870320D01*
X170392657Y-99824792D01*
X170550269Y-99755994D01*
X170548834Y-106827720D01*
X169891112Y-106827720D01*
X170040990Y-106603411D01*
X170152932Y-106333158D01*
X170210000Y-106046260D01*
X170210000Y-105753740D01*
X170152932Y-105466842D01*
X170040990Y-105196589D01*
X169878475Y-104953368D01*
X169671632Y-104746525D01*
X169428411Y-104584010D01*
X169158158Y-104472068D01*
X168871260Y-104415000D01*
X168578740Y-104415000D01*
X168291842Y-104472068D01*
X168021589Y-104584010D01*
X167778368Y-104746525D01*
X167571525Y-104953368D01*
X167455000Y-105127760D01*
X167338475Y-104953368D01*
X167131632Y-104746525D01*
X166888411Y-104584010D01*
X166618158Y-104472068D01*
X166331260Y-104415000D01*
X166038740Y-104415000D01*
X165751842Y-104472068D01*
X165481589Y-104584010D01*
X165238368Y-104746525D01*
X165031525Y-104953368D01*
X164915000Y-105127760D01*
X164798475Y-104953368D01*
X164591632Y-104746525D01*
X164348411Y-104584010D01*
X164078158Y-104472068D01*
X163791260Y-104415000D01*
X163498740Y-104415000D01*
X163211842Y-104472068D01*
X162941589Y-104584010D01*
X162698368Y-104746525D01*
X162491525Y-104953368D01*
X162375000Y-105127760D01*
X162258475Y-104953368D01*
X162051632Y-104746525D01*
X161808411Y-104584010D01*
X161538158Y-104472068D01*
X161251260Y-104415000D01*
X160958740Y-104415000D01*
X160671842Y-104472068D01*
X160401589Y-104584010D01*
X160158368Y-104746525D01*
X159951525Y-104953368D01*
X159835000Y-105127760D01*
X159718475Y-104953368D01*
X159511632Y-104746525D01*
X159268411Y-104584010D01*
X158998158Y-104472068D01*
X158711260Y-104415000D01*
X158418740Y-104415000D01*
X158131842Y-104472068D01*
X157861589Y-104584010D01*
X157618368Y-104746525D01*
X157411525Y-104953368D01*
X157295000Y-105127760D01*
X157178475Y-104953368D01*
X156971632Y-104746525D01*
X156728411Y-104584010D01*
X156458158Y-104472068D01*
X156171260Y-104415000D01*
X155878740Y-104415000D01*
X155591842Y-104472068D01*
X155321589Y-104584010D01*
X155078368Y-104746525D01*
X154871525Y-104953368D01*
X154755000Y-105127760D01*
X154638475Y-104953368D01*
X154431632Y-104746525D01*
X154188411Y-104584010D01*
X153918158Y-104472068D01*
X153631260Y-104415000D01*
X153338740Y-104415000D01*
X153051842Y-104472068D01*
X152781589Y-104584010D01*
X152538368Y-104746525D01*
X152331525Y-104953368D01*
X152215000Y-105127760D01*
X152098475Y-104953368D01*
X151891632Y-104746525D01*
X151648411Y-104584010D01*
X151378158Y-104472068D01*
X151091260Y-104415000D01*
X150798740Y-104415000D01*
X150511842Y-104472068D01*
X150241589Y-104584010D01*
X149998368Y-104746525D01*
X149791525Y-104953368D01*
X149675000Y-105127760D01*
X149558475Y-104953368D01*
X149351632Y-104746525D01*
X149108411Y-104584010D01*
X148838158Y-104472068D01*
X148551260Y-104415000D01*
X148258740Y-104415000D01*
X147971842Y-104472068D01*
X147701589Y-104584010D01*
X147458368Y-104746525D01*
X147251525Y-104953368D01*
X147135000Y-105127760D01*
X147018475Y-104953368D01*
X146811632Y-104746525D01*
X146568411Y-104584010D01*
X146298158Y-104472068D01*
X146011260Y-104415000D01*
X145718740Y-104415000D01*
X145431842Y-104472068D01*
X145161589Y-104584010D01*
X144918368Y-104746525D01*
X144786513Y-104878380D01*
X144764502Y-104805820D01*
X144705537Y-104695506D01*
X144626185Y-104598815D01*
X144529494Y-104519463D01*
X144419180Y-104460498D01*
X144299482Y-104424188D01*
X144175000Y-104411928D01*
X142475000Y-104411928D01*
X142350518Y-104424188D01*
X142230820Y-104460498D01*
X142120506Y-104519463D01*
X142023815Y-104598815D01*
X141944463Y-104695506D01*
X141885498Y-104805820D01*
X141849188Y-104925518D01*
X141836928Y-105050000D01*
X141836928Y-106750000D01*
X141844582Y-106827720D01*
X141660000Y-106827720D01*
X141660000Y-99648061D01*
X148440000Y-99648061D01*
X148440000Y-99851939D01*
X148479774Y-100051898D01*
X148557795Y-100240256D01*
X148671063Y-100409774D01*
X148815226Y-100553937D01*
X148984744Y-100667205D01*
X149173102Y-100745226D01*
X149373061Y-100785000D01*
X149576939Y-100785000D01*
X149776898Y-100745226D01*
X149965256Y-100667205D01*
X150134774Y-100553937D01*
X150278937Y-100409774D01*
X150392205Y-100240256D01*
X150470226Y-100051898D01*
X150510000Y-99851939D01*
X150510000Y-99648061D01*
X150470226Y-99448102D01*
X150425155Y-99339291D01*
X152004447Y-97760000D01*
X152101939Y-97760000D01*
X152301898Y-97720226D01*
X152377872Y-97688756D01*
X152383563Y-97697274D01*
X152527726Y-97841437D01*
X152697244Y-97954705D01*
X152885602Y-98032726D01*
X153030725Y-98061593D01*
X155863577Y-100894445D01*
X155863582Y-100894449D01*
X156130558Y-101161426D01*
X156156709Y-101193291D01*
X156283854Y-101297636D01*
X156428913Y-101375172D01*
X156586311Y-101422918D01*
X156708981Y-101435000D01*
X156708982Y-101435000D01*
X156750000Y-101439040D01*
X156791018Y-101435000D01*
X159020990Y-101435000D01*
X159062008Y-101439040D01*
X159103026Y-101435000D01*
X159103027Y-101435000D01*
X159225697Y-101422918D01*
X159383095Y-101375172D01*
X159528154Y-101297636D01*
X159655299Y-101193291D01*
X159681454Y-101161421D01*
X161056004Y-99786872D01*
X163630559Y-102361427D01*
X163656709Y-102393291D01*
X163737719Y-102459774D01*
X163783854Y-102497636D01*
X163928913Y-102575172D01*
X164086311Y-102622918D01*
X164249999Y-102639040D01*
X164291018Y-102635000D01*
X165611715Y-102635000D01*
X165734744Y-102717205D01*
X165923102Y-102795226D01*
X166123061Y-102835000D01*
X166326939Y-102835000D01*
X166526898Y-102795226D01*
X166715256Y-102717205D01*
X166884774Y-102603937D01*
X167028937Y-102459774D01*
X167142205Y-102290256D01*
X167220226Y-102101898D01*
X167260000Y-101901939D01*
X167260000Y-101698061D01*
X167220226Y-101498102D01*
X167142205Y-101309744D01*
X167028937Y-101140226D01*
X166884774Y-100996063D01*
X166715256Y-100882795D01*
X166526898Y-100804774D01*
X166326939Y-100765000D01*
X166123061Y-100765000D01*
X165923102Y-100804774D01*
X165734744Y-100882795D01*
X165611715Y-100965000D01*
X164595868Y-100965000D01*
X162714401Y-99083533D01*
X168357965Y-99083533D01*
X168428854Y-99284740D01*
X168543921Y-99464194D01*
X168691787Y-99617751D01*
X168866769Y-99739510D01*
X169062143Y-99824792D01*
X169270400Y-99870320D01*
X169600400Y-99870320D01*
X169600400Y-98917320D01*
X168484946Y-98917320D01*
X168357965Y-99083533D01*
X162714401Y-99083533D01*
X161722319Y-98091451D01*
X165926170Y-98091451D01*
X165976814Y-98303386D01*
X166067831Y-98501369D01*
X166195724Y-98677791D01*
X166355578Y-98825873D01*
X166541250Y-98939923D01*
X166729462Y-99009588D01*
X166900400Y-98883054D01*
X166900400Y-97917320D01*
X167154400Y-97917320D01*
X167154400Y-98883054D01*
X167325338Y-99009588D01*
X167513550Y-98939923D01*
X167699222Y-98825873D01*
X167859076Y-98677791D01*
X167986969Y-98501369D01*
X167988928Y-98497107D01*
X168357965Y-98497107D01*
X168484946Y-98663320D01*
X169600400Y-98663320D01*
X169600400Y-97710320D01*
X169270400Y-97710320D01*
X169062143Y-97755848D01*
X168866769Y-97841130D01*
X168691787Y-97962889D01*
X168543921Y-98116446D01*
X168428854Y-98295900D01*
X168357965Y-98497107D01*
X167988928Y-98497107D01*
X168077986Y-98303386D01*
X168128630Y-98091451D01*
X167979964Y-97917320D01*
X167154400Y-97917320D01*
X166900400Y-97917320D01*
X166074836Y-97917320D01*
X165926170Y-98091451D01*
X161722319Y-98091451D01*
X161690868Y-98060001D01*
X162438894Y-98060001D01*
X162474999Y-98063557D01*
X162511104Y-98060001D01*
X162619084Y-98049366D01*
X162757632Y-98007338D01*
X162885319Y-97939088D01*
X162997237Y-97847239D01*
X163020258Y-97819188D01*
X163350257Y-97489189D01*
X165926170Y-97489189D01*
X166074836Y-97663320D01*
X166900400Y-97663320D01*
X166900400Y-96697586D01*
X167154400Y-96697586D01*
X167154400Y-97663320D01*
X167979964Y-97663320D01*
X168128630Y-97489189D01*
X168077986Y-97277254D01*
X167986969Y-97079271D01*
X167859076Y-96902849D01*
X167699222Y-96754767D01*
X167513550Y-96640717D01*
X167325338Y-96571052D01*
X167154400Y-96697586D01*
X166900400Y-96697586D01*
X166729462Y-96571052D01*
X166541250Y-96640717D01*
X166355578Y-96754767D01*
X166195724Y-96902849D01*
X166067831Y-97079271D01*
X165976814Y-97277254D01*
X165926170Y-97489189D01*
X163350257Y-97489189D01*
X165279447Y-95560000D01*
X165376939Y-95560000D01*
X165576898Y-95520226D01*
X165765256Y-95442205D01*
X165934774Y-95328937D01*
X166078937Y-95184774D01*
X166192205Y-95015256D01*
X166270226Y-94826898D01*
X166310000Y-94626939D01*
X166310000Y-94423061D01*
X166270226Y-94223102D01*
X166192205Y-94034744D01*
X166078937Y-93865226D01*
X165934774Y-93721063D01*
X165765256Y-93607795D01*
X165576898Y-93529774D01*
X165376939Y-93490000D01*
X165173061Y-93490000D01*
X164973102Y-93529774D01*
X164784744Y-93607795D01*
X164615226Y-93721063D01*
X164471063Y-93865226D01*
X164357795Y-94034744D01*
X164279774Y-94223102D01*
X164240000Y-94423061D01*
X164240000Y-94520553D01*
X162170553Y-96590001D01*
X161474446Y-96590001D01*
X162329447Y-95735000D01*
X162426939Y-95735000D01*
X162626898Y-95695226D01*
X162815256Y-95617205D01*
X162984774Y-95503937D01*
X163128937Y-95359774D01*
X163242205Y-95190256D01*
X163320226Y-95001898D01*
X163360000Y-94801939D01*
X163360000Y-94598061D01*
X163320226Y-94398102D01*
X163242205Y-94209744D01*
X163128937Y-94040226D01*
X162984774Y-93896063D01*
X162815256Y-93782795D01*
X162626898Y-93704774D01*
X162426939Y-93665000D01*
X162223061Y-93665000D01*
X162023102Y-93704774D01*
X161834744Y-93782795D01*
X161665226Y-93896063D01*
X161521063Y-94040226D01*
X161407795Y-94209744D01*
X161329774Y-94398102D01*
X161290000Y-94598061D01*
X161290000Y-94695553D01*
X160835000Y-95150553D01*
X160835000Y-94388285D01*
X160917205Y-94265256D01*
X160995226Y-94076898D01*
X161035000Y-93876939D01*
X161035000Y-93673061D01*
X160995226Y-93473102D01*
X160917205Y-93284744D01*
X160803937Y-93115226D01*
X160780162Y-93091451D01*
X165926170Y-93091451D01*
X165976814Y-93303386D01*
X166067831Y-93501369D01*
X166195724Y-93677791D01*
X166355578Y-93825873D01*
X166541250Y-93939923D01*
X166729462Y-94009588D01*
X166900400Y-93883054D01*
X166900400Y-92917320D01*
X167154400Y-92917320D01*
X167154400Y-93883054D01*
X167325338Y-94009588D01*
X167513550Y-93939923D01*
X167699222Y-93825873D01*
X167859076Y-93677791D01*
X167986969Y-93501369D01*
X168077986Y-93303386D01*
X168128630Y-93091451D01*
X167979964Y-92917320D01*
X167154400Y-92917320D01*
X166900400Y-92917320D01*
X166074836Y-92917320D01*
X165926170Y-93091451D01*
X160780162Y-93091451D01*
X160659774Y-92971063D01*
X160490256Y-92857795D01*
X160301898Y-92779774D01*
X160101939Y-92740000D01*
X159898061Y-92740000D01*
X159698102Y-92779774D01*
X159509744Y-92857795D01*
X159340226Y-92971063D01*
X159196063Y-93115226D01*
X159082795Y-93284744D01*
X159004774Y-93473102D01*
X158965000Y-93673061D01*
X158965000Y-93876939D01*
X159004774Y-94076898D01*
X159082795Y-94265256D01*
X159165001Y-94388286D01*
X159165000Y-95954131D01*
X156363574Y-98755559D01*
X156331710Y-98781709D01*
X156295466Y-98825873D01*
X156232935Y-98902067D01*
X154211593Y-96880725D01*
X154182726Y-96735602D01*
X154104705Y-96547244D01*
X153991437Y-96377726D01*
X153847274Y-96233563D01*
X153677756Y-96120295D01*
X153489398Y-96042274D01*
X153289439Y-96002500D01*
X153085561Y-96002500D01*
X152885602Y-96042274D01*
X152809628Y-96073744D01*
X152803937Y-96065226D01*
X152659774Y-95921063D01*
X152490256Y-95807795D01*
X152301898Y-95729774D01*
X152101939Y-95690000D01*
X151898061Y-95690000D01*
X151698102Y-95729774D01*
X151509744Y-95807795D01*
X151340226Y-95921063D01*
X151196063Y-96065226D01*
X151082795Y-96234744D01*
X151004774Y-96423102D01*
X150965000Y-96623061D01*
X150965000Y-96720553D01*
X148980808Y-98704746D01*
X148952762Y-98727763D01*
X148860913Y-98839681D01*
X148792663Y-98967368D01*
X148792115Y-98969174D01*
X148671063Y-99090226D01*
X148557795Y-99259744D01*
X148479774Y-99448102D01*
X148440000Y-99648061D01*
X141660000Y-99648061D01*
X141660000Y-92489189D01*
X165926170Y-92489189D01*
X166074836Y-92663320D01*
X166900400Y-92663320D01*
X166900400Y-91697586D01*
X167154400Y-91697586D01*
X167154400Y-92663320D01*
X167979964Y-92663320D01*
X168128630Y-92489189D01*
X168077986Y-92277254D01*
X167988929Y-92083533D01*
X168357965Y-92083533D01*
X168428854Y-92284740D01*
X168543921Y-92464194D01*
X168691787Y-92617751D01*
X168866769Y-92739510D01*
X169062143Y-92824792D01*
X169270400Y-92870320D01*
X169600400Y-92870320D01*
X169600400Y-91917320D01*
X168484946Y-91917320D01*
X168357965Y-92083533D01*
X167988929Y-92083533D01*
X167986969Y-92079271D01*
X167859076Y-91902849D01*
X167699222Y-91754767D01*
X167513550Y-91640717D01*
X167325338Y-91571052D01*
X167154400Y-91697586D01*
X166900400Y-91697586D01*
X166729462Y-91571052D01*
X166541250Y-91640717D01*
X166355578Y-91754767D01*
X166195724Y-91902849D01*
X166067831Y-92079271D01*
X165976814Y-92277254D01*
X165926170Y-92489189D01*
X141660000Y-92489189D01*
X141660000Y-91497107D01*
X168357965Y-91497107D01*
X168484946Y-91663320D01*
X169600400Y-91663320D01*
X169600400Y-90710320D01*
X169270400Y-90710320D01*
X169062143Y-90755848D01*
X168866769Y-90841130D01*
X168691787Y-90962889D01*
X168543921Y-91116446D01*
X168428854Y-91295900D01*
X168357965Y-91497107D01*
X141660000Y-91497107D01*
X141660000Y-83100780D01*
X141981169Y-83100780D01*
X141944463Y-83145506D01*
%TA.AperFunction,Conductor*%
D18*
G36*
X141944463Y-83145506D02*
G01*
X141885498Y-83255820D01*
X141849188Y-83375518D01*
X141836928Y-83500000D01*
X141836928Y-85200000D01*
X141849188Y-85324482D01*
X141885498Y-85444180D01*
X141944463Y-85554494D01*
X142023815Y-85651185D01*
X142120506Y-85730537D01*
X142230820Y-85789502D01*
X142350518Y-85825812D01*
X142475000Y-85838072D01*
X144175000Y-85838072D01*
X144299482Y-85825812D01*
X144419180Y-85789502D01*
X144529494Y-85730537D01*
X144626185Y-85651185D01*
X144705537Y-85554494D01*
X144764502Y-85444180D01*
X144786513Y-85371620D01*
X144918368Y-85503475D01*
X145161589Y-85665990D01*
X145431842Y-85777932D01*
X145718740Y-85835000D01*
X146011260Y-85835000D01*
X146298158Y-85777932D01*
X146568411Y-85665990D01*
X146811632Y-85503475D01*
X147018475Y-85296632D01*
X147135000Y-85122240D01*
X147251525Y-85296632D01*
X147458368Y-85503475D01*
X147701589Y-85665990D01*
X147971842Y-85777932D01*
X148258740Y-85835000D01*
X148551260Y-85835000D01*
X148838158Y-85777932D01*
X149108411Y-85665990D01*
X149351632Y-85503475D01*
X149558475Y-85296632D01*
X149675000Y-85122240D01*
X149791525Y-85296632D01*
X149998368Y-85503475D01*
X150241589Y-85665990D01*
X150511842Y-85777932D01*
X150798740Y-85835000D01*
X151091260Y-85835000D01*
X151378158Y-85777932D01*
X151648411Y-85665990D01*
X151891632Y-85503475D01*
X152098475Y-85296632D01*
X152215000Y-85122240D01*
X152331525Y-85296632D01*
X152538368Y-85503475D01*
X152781589Y-85665990D01*
X153051842Y-85777932D01*
X153338740Y-85835000D01*
X153631260Y-85835000D01*
X153918158Y-85777932D01*
X154188411Y-85665990D01*
X154431632Y-85503475D01*
X154638475Y-85296632D01*
X154755000Y-85122240D01*
X154871525Y-85296632D01*
X155078368Y-85503475D01*
X155321589Y-85665990D01*
X155591842Y-85777932D01*
X155878740Y-85835000D01*
X156171260Y-85835000D01*
X156458158Y-85777932D01*
X156728411Y-85665990D01*
X156971632Y-85503475D01*
X157178475Y-85296632D01*
X157295000Y-85122240D01*
X157411525Y-85296632D01*
X157618368Y-85503475D01*
X157861589Y-85665990D01*
X158131842Y-85777932D01*
X158418740Y-85835000D01*
X158711260Y-85835000D01*
X158998158Y-85777932D01*
X159268411Y-85665990D01*
X159511632Y-85503475D01*
X159718475Y-85296632D01*
X159835000Y-85122240D01*
X159951525Y-85296632D01*
X160158368Y-85503475D01*
X160401589Y-85665990D01*
X160671842Y-85777932D01*
X160958740Y-85835000D01*
X161251260Y-85835000D01*
X161538158Y-85777932D01*
X161808411Y-85665990D01*
X162051632Y-85503475D01*
X162258475Y-85296632D01*
X162375000Y-85122240D01*
X162491525Y-85296632D01*
X162698368Y-85503475D01*
X162941589Y-85665990D01*
X163211842Y-85777932D01*
X163498740Y-85835000D01*
X163791260Y-85835000D01*
X164078158Y-85777932D01*
X164348411Y-85665990D01*
X164591632Y-85503475D01*
X164798475Y-85296632D01*
X164920195Y-85114466D01*
X164989822Y-85231355D01*
X165184731Y-85447588D01*
X165418080Y-85621641D01*
X165680901Y-85746825D01*
X165828110Y-85791476D01*
X166058000Y-85670155D01*
X166058000Y-84477000D01*
X166038000Y-84477000D01*
X166038000Y-84223000D01*
X166058000Y-84223000D01*
X166058000Y-84203000D01*
X166312000Y-84203000D01*
X166312000Y-84223000D01*
X166332000Y-84223000D01*
X166332000Y-84477000D01*
X166312000Y-84477000D01*
X166312000Y-85670155D01*
X166541890Y-85791476D01*
X166689099Y-85746825D01*
X166951920Y-85621641D01*
X167185269Y-85447588D01*
X167380178Y-85231355D01*
X167449805Y-85114466D01*
X167571525Y-85296632D01*
X167778368Y-85503475D01*
X168021589Y-85665990D01*
X168291842Y-85777932D01*
X168578740Y-85835000D01*
X168871260Y-85835000D01*
X169158158Y-85777932D01*
X169428411Y-85665990D01*
X169671632Y-85503475D01*
X169878475Y-85296632D01*
X170040990Y-85053411D01*
X170152932Y-84783158D01*
X170210000Y-84496260D01*
X170210000Y-84203740D01*
X170152932Y-83916842D01*
X170040990Y-83646589D01*
X169878475Y-83403368D01*
X169671632Y-83196525D01*
X169528339Y-83100780D01*
X170553647Y-83100780D01*
X170552080Y-90825437D01*
X170392657Y-90755848D01*
X170184400Y-90710320D01*
X169854400Y-90710320D01*
X169854400Y-91663320D01*
X169874400Y-91663320D01*
X169874400Y-91917320D01*
X169854400Y-91917320D01*
X169854400Y-92870320D01*
X170184400Y-92870320D01*
X170392657Y-92824792D01*
X170551688Y-92755374D01*
X170550660Y-97824817D01*
X170392657Y-97755848D01*
X170184400Y-97710320D01*
X169854400Y-97710320D01*
X169854400Y-98663320D01*
X169874400Y-98663320D01*
X169874400Y-98917320D01*
X169854400Y-98917320D01*
X169854400Y-99870320D01*
X170184400Y-99870320D01*
X170392657Y-99824792D01*
X170550269Y-99755994D01*
X170548834Y-106827720D01*
X169891112Y-106827720D01*
X170040990Y-106603411D01*
X170152932Y-106333158D01*
X170210000Y-106046260D01*
X170210000Y-105753740D01*
X170152932Y-105466842D01*
X170040990Y-105196589D01*
X169878475Y-104953368D01*
X169671632Y-104746525D01*
X169428411Y-104584010D01*
X169158158Y-104472068D01*
X168871260Y-104415000D01*
X168578740Y-104415000D01*
X168291842Y-104472068D01*
X168021589Y-104584010D01*
X167778368Y-104746525D01*
X167571525Y-104953368D01*
X167455000Y-105127760D01*
X167338475Y-104953368D01*
X167131632Y-104746525D01*
X166888411Y-104584010D01*
X166618158Y-104472068D01*
X166331260Y-104415000D01*
X166038740Y-104415000D01*
X165751842Y-104472068D01*
X165481589Y-104584010D01*
X165238368Y-104746525D01*
X165031525Y-104953368D01*
X164915000Y-105127760D01*
X164798475Y-104953368D01*
X164591632Y-104746525D01*
X164348411Y-104584010D01*
X164078158Y-104472068D01*
X163791260Y-104415000D01*
X163498740Y-104415000D01*
X163211842Y-104472068D01*
X162941589Y-104584010D01*
X162698368Y-104746525D01*
X162491525Y-104953368D01*
X162375000Y-105127760D01*
X162258475Y-104953368D01*
X162051632Y-104746525D01*
X161808411Y-104584010D01*
X161538158Y-104472068D01*
X161251260Y-104415000D01*
X160958740Y-104415000D01*
X160671842Y-104472068D01*
X160401589Y-104584010D01*
X160158368Y-104746525D01*
X159951525Y-104953368D01*
X159835000Y-105127760D01*
X159718475Y-104953368D01*
X159511632Y-104746525D01*
X159268411Y-104584010D01*
X158998158Y-104472068D01*
X158711260Y-104415000D01*
X158418740Y-104415000D01*
X158131842Y-104472068D01*
X157861589Y-104584010D01*
X157618368Y-104746525D01*
X157411525Y-104953368D01*
X157295000Y-105127760D01*
X157178475Y-104953368D01*
X156971632Y-104746525D01*
X156728411Y-104584010D01*
X156458158Y-104472068D01*
X156171260Y-104415000D01*
X155878740Y-104415000D01*
X155591842Y-104472068D01*
X155321589Y-104584010D01*
X155078368Y-104746525D01*
X154871525Y-104953368D01*
X154755000Y-105127760D01*
X154638475Y-104953368D01*
X154431632Y-104746525D01*
X154188411Y-104584010D01*
X153918158Y-104472068D01*
X153631260Y-104415000D01*
X153338740Y-104415000D01*
X153051842Y-104472068D01*
X152781589Y-104584010D01*
X152538368Y-104746525D01*
X152331525Y-104953368D01*
X152215000Y-105127760D01*
X152098475Y-104953368D01*
X151891632Y-104746525D01*
X151648411Y-104584010D01*
X151378158Y-104472068D01*
X151091260Y-104415000D01*
X150798740Y-104415000D01*
X150511842Y-104472068D01*
X150241589Y-104584010D01*
X149998368Y-104746525D01*
X149791525Y-104953368D01*
X149675000Y-105127760D01*
X149558475Y-104953368D01*
X149351632Y-104746525D01*
X149108411Y-104584010D01*
X148838158Y-104472068D01*
X148551260Y-104415000D01*
X148258740Y-104415000D01*
X147971842Y-104472068D01*
X147701589Y-104584010D01*
X147458368Y-104746525D01*
X147251525Y-104953368D01*
X147135000Y-105127760D01*
X147018475Y-104953368D01*
X146811632Y-104746525D01*
X146568411Y-104584010D01*
X146298158Y-104472068D01*
X146011260Y-104415000D01*
X145718740Y-104415000D01*
X145431842Y-104472068D01*
X145161589Y-104584010D01*
X144918368Y-104746525D01*
X144786513Y-104878380D01*
X144764502Y-104805820D01*
X144705537Y-104695506D01*
X144626185Y-104598815D01*
X144529494Y-104519463D01*
X144419180Y-104460498D01*
X144299482Y-104424188D01*
X144175000Y-104411928D01*
X142475000Y-104411928D01*
X142350518Y-104424188D01*
X142230820Y-104460498D01*
X142120506Y-104519463D01*
X142023815Y-104598815D01*
X141944463Y-104695506D01*
X141885498Y-104805820D01*
X141849188Y-104925518D01*
X141836928Y-105050000D01*
X141836928Y-106750000D01*
X141844582Y-106827720D01*
X141660000Y-106827720D01*
X141660000Y-99648061D01*
X148440000Y-99648061D01*
X148440000Y-99851939D01*
X148479774Y-100051898D01*
X148557795Y-100240256D01*
X148671063Y-100409774D01*
X148815226Y-100553937D01*
X148984744Y-100667205D01*
X149173102Y-100745226D01*
X149373061Y-100785000D01*
X149576939Y-100785000D01*
X149776898Y-100745226D01*
X149965256Y-100667205D01*
X150134774Y-100553937D01*
X150278937Y-100409774D01*
X150392205Y-100240256D01*
X150470226Y-100051898D01*
X150510000Y-99851939D01*
X150510000Y-99648061D01*
X150470226Y-99448102D01*
X150425155Y-99339291D01*
X152004447Y-97760000D01*
X152101939Y-97760000D01*
X152301898Y-97720226D01*
X152377872Y-97688756D01*
X152383563Y-97697274D01*
X152527726Y-97841437D01*
X152697244Y-97954705D01*
X152885602Y-98032726D01*
X153030725Y-98061593D01*
X155863577Y-100894445D01*
X155863582Y-100894449D01*
X156130558Y-101161426D01*
X156156709Y-101193291D01*
X156283854Y-101297636D01*
X156428913Y-101375172D01*
X156586311Y-101422918D01*
X156708981Y-101435000D01*
X156708982Y-101435000D01*
X156750000Y-101439040D01*
X156791018Y-101435000D01*
X159020990Y-101435000D01*
X159062008Y-101439040D01*
X159103026Y-101435000D01*
X159103027Y-101435000D01*
X159225697Y-101422918D01*
X159383095Y-101375172D01*
X159528154Y-101297636D01*
X159655299Y-101193291D01*
X159681454Y-101161421D01*
X161056004Y-99786872D01*
X163630559Y-102361427D01*
X163656709Y-102393291D01*
X163737719Y-102459774D01*
X163783854Y-102497636D01*
X163928913Y-102575172D01*
X164086311Y-102622918D01*
X164249999Y-102639040D01*
X164291018Y-102635000D01*
X165611715Y-102635000D01*
X165734744Y-102717205D01*
X165923102Y-102795226D01*
X166123061Y-102835000D01*
X166326939Y-102835000D01*
X166526898Y-102795226D01*
X166715256Y-102717205D01*
X166884774Y-102603937D01*
X167028937Y-102459774D01*
X167142205Y-102290256D01*
X167220226Y-102101898D01*
X167260000Y-101901939D01*
X167260000Y-101698061D01*
X167220226Y-101498102D01*
X167142205Y-101309744D01*
X167028937Y-101140226D01*
X166884774Y-100996063D01*
X166715256Y-100882795D01*
X166526898Y-100804774D01*
X166326939Y-100765000D01*
X166123061Y-100765000D01*
X165923102Y-100804774D01*
X165734744Y-100882795D01*
X165611715Y-100965000D01*
X164595868Y-100965000D01*
X162714401Y-99083533D01*
X168357965Y-99083533D01*
X168428854Y-99284740D01*
X168543921Y-99464194D01*
X168691787Y-99617751D01*
X168866769Y-99739510D01*
X169062143Y-99824792D01*
X169270400Y-99870320D01*
X169600400Y-99870320D01*
X169600400Y-98917320D01*
X168484946Y-98917320D01*
X168357965Y-99083533D01*
X162714401Y-99083533D01*
X161722319Y-98091451D01*
X165926170Y-98091451D01*
X165976814Y-98303386D01*
X166067831Y-98501369D01*
X166195724Y-98677791D01*
X166355578Y-98825873D01*
X166541250Y-98939923D01*
X166729462Y-99009588D01*
X166900400Y-98883054D01*
X166900400Y-97917320D01*
X167154400Y-97917320D01*
X167154400Y-98883054D01*
X167325338Y-99009588D01*
X167513550Y-98939923D01*
X167699222Y-98825873D01*
X167859076Y-98677791D01*
X167986969Y-98501369D01*
X167988928Y-98497107D01*
X168357965Y-98497107D01*
X168484946Y-98663320D01*
X169600400Y-98663320D01*
X169600400Y-97710320D01*
X169270400Y-97710320D01*
X169062143Y-97755848D01*
X168866769Y-97841130D01*
X168691787Y-97962889D01*
X168543921Y-98116446D01*
X168428854Y-98295900D01*
X168357965Y-98497107D01*
X167988928Y-98497107D01*
X168077986Y-98303386D01*
X168128630Y-98091451D01*
X167979964Y-97917320D01*
X167154400Y-97917320D01*
X166900400Y-97917320D01*
X166074836Y-97917320D01*
X165926170Y-98091451D01*
X161722319Y-98091451D01*
X161690868Y-98060001D01*
X162438894Y-98060001D01*
X162474999Y-98063557D01*
X162511104Y-98060001D01*
X162619084Y-98049366D01*
X162757632Y-98007338D01*
X162885319Y-97939088D01*
X162997237Y-97847239D01*
X163020258Y-97819188D01*
X163350257Y-97489189D01*
X165926170Y-97489189D01*
X166074836Y-97663320D01*
X166900400Y-97663320D01*
X166900400Y-96697586D01*
X167154400Y-96697586D01*
X167154400Y-97663320D01*
X167979964Y-97663320D01*
X168128630Y-97489189D01*
X168077986Y-97277254D01*
X167986969Y-97079271D01*
X167859076Y-96902849D01*
X167699222Y-96754767D01*
X167513550Y-96640717D01*
X167325338Y-96571052D01*
X167154400Y-96697586D01*
X166900400Y-96697586D01*
X166729462Y-96571052D01*
X166541250Y-96640717D01*
X166355578Y-96754767D01*
X166195724Y-96902849D01*
X166067831Y-97079271D01*
X165976814Y-97277254D01*
X165926170Y-97489189D01*
X163350257Y-97489189D01*
X165279447Y-95560000D01*
X165376939Y-95560000D01*
X165576898Y-95520226D01*
X165765256Y-95442205D01*
X165934774Y-95328937D01*
X166078937Y-95184774D01*
X166192205Y-95015256D01*
X166270226Y-94826898D01*
X166310000Y-94626939D01*
X166310000Y-94423061D01*
X166270226Y-94223102D01*
X166192205Y-94034744D01*
X166078937Y-93865226D01*
X165934774Y-93721063D01*
X165765256Y-93607795D01*
X165576898Y-93529774D01*
X165376939Y-93490000D01*
X165173061Y-93490000D01*
X164973102Y-93529774D01*
X164784744Y-93607795D01*
X164615226Y-93721063D01*
X164471063Y-93865226D01*
X164357795Y-94034744D01*
X164279774Y-94223102D01*
X164240000Y-94423061D01*
X164240000Y-94520553D01*
X162170553Y-96590001D01*
X161474446Y-96590001D01*
X162329447Y-95735000D01*
X162426939Y-95735000D01*
X162626898Y-95695226D01*
X162815256Y-95617205D01*
X162984774Y-95503937D01*
X163128937Y-95359774D01*
X163242205Y-95190256D01*
X163320226Y-95001898D01*
X163360000Y-94801939D01*
X163360000Y-94598061D01*
X163320226Y-94398102D01*
X163242205Y-94209744D01*
X163128937Y-94040226D01*
X162984774Y-93896063D01*
X162815256Y-93782795D01*
X162626898Y-93704774D01*
X162426939Y-93665000D01*
X162223061Y-93665000D01*
X162023102Y-93704774D01*
X161834744Y-93782795D01*
X161665226Y-93896063D01*
X161521063Y-94040226D01*
X161407795Y-94209744D01*
X161329774Y-94398102D01*
X161290000Y-94598061D01*
X161290000Y-94695553D01*
X160835000Y-95150553D01*
X160835000Y-94388285D01*
X160917205Y-94265256D01*
X160995226Y-94076898D01*
X161035000Y-93876939D01*
X161035000Y-93673061D01*
X160995226Y-93473102D01*
X160917205Y-93284744D01*
X160803937Y-93115226D01*
X160780162Y-93091451D01*
X165926170Y-93091451D01*
X165976814Y-93303386D01*
X166067831Y-93501369D01*
X166195724Y-93677791D01*
X166355578Y-93825873D01*
X166541250Y-93939923D01*
X166729462Y-94009588D01*
X166900400Y-93883054D01*
X166900400Y-92917320D01*
X167154400Y-92917320D01*
X167154400Y-93883054D01*
X167325338Y-94009588D01*
X167513550Y-93939923D01*
X167699222Y-93825873D01*
X167859076Y-93677791D01*
X167986969Y-93501369D01*
X168077986Y-93303386D01*
X168128630Y-93091451D01*
X167979964Y-92917320D01*
X167154400Y-92917320D01*
X166900400Y-92917320D01*
X166074836Y-92917320D01*
X165926170Y-93091451D01*
X160780162Y-93091451D01*
X160659774Y-92971063D01*
X160490256Y-92857795D01*
X160301898Y-92779774D01*
X160101939Y-92740000D01*
X159898061Y-92740000D01*
X159698102Y-92779774D01*
X159509744Y-92857795D01*
X159340226Y-92971063D01*
X159196063Y-93115226D01*
X159082795Y-93284744D01*
X159004774Y-93473102D01*
X158965000Y-93673061D01*
X158965000Y-93876939D01*
X159004774Y-94076898D01*
X159082795Y-94265256D01*
X159165001Y-94388286D01*
X159165000Y-95954131D01*
X156363574Y-98755559D01*
X156331710Y-98781709D01*
X156295466Y-98825873D01*
X156232935Y-98902067D01*
X154211593Y-96880725D01*
X154182726Y-96735602D01*
X154104705Y-96547244D01*
X153991437Y-96377726D01*
X153847274Y-96233563D01*
X153677756Y-96120295D01*
X153489398Y-96042274D01*
X153289439Y-96002500D01*
X153085561Y-96002500D01*
X152885602Y-96042274D01*
X152809628Y-96073744D01*
X152803937Y-96065226D01*
X152659774Y-95921063D01*
X152490256Y-95807795D01*
X152301898Y-95729774D01*
X152101939Y-95690000D01*
X151898061Y-95690000D01*
X151698102Y-95729774D01*
X151509744Y-95807795D01*
X151340226Y-95921063D01*
X151196063Y-96065226D01*
X151082795Y-96234744D01*
X151004774Y-96423102D01*
X150965000Y-96623061D01*
X150965000Y-96720553D01*
X148980808Y-98704746D01*
X148952762Y-98727763D01*
X148860913Y-98839681D01*
X148792663Y-98967368D01*
X148792115Y-98969174D01*
X148671063Y-99090226D01*
X148557795Y-99259744D01*
X148479774Y-99448102D01*
X148440000Y-99648061D01*
X141660000Y-99648061D01*
X141660000Y-92489189D01*
X165926170Y-92489189D01*
X166074836Y-92663320D01*
X166900400Y-92663320D01*
X166900400Y-91697586D01*
X167154400Y-91697586D01*
X167154400Y-92663320D01*
X167979964Y-92663320D01*
X168128630Y-92489189D01*
X168077986Y-92277254D01*
X167988929Y-92083533D01*
X168357965Y-92083533D01*
X168428854Y-92284740D01*
X168543921Y-92464194D01*
X168691787Y-92617751D01*
X168866769Y-92739510D01*
X169062143Y-92824792D01*
X169270400Y-92870320D01*
X169600400Y-92870320D01*
X169600400Y-91917320D01*
X168484946Y-91917320D01*
X168357965Y-92083533D01*
X167988929Y-92083533D01*
X167986969Y-92079271D01*
X167859076Y-91902849D01*
X167699222Y-91754767D01*
X167513550Y-91640717D01*
X167325338Y-91571052D01*
X167154400Y-91697586D01*
X166900400Y-91697586D01*
X166729462Y-91571052D01*
X166541250Y-91640717D01*
X166355578Y-91754767D01*
X166195724Y-91902849D01*
X166067831Y-92079271D01*
X165976814Y-92277254D01*
X165926170Y-92489189D01*
X141660000Y-92489189D01*
X141660000Y-91497107D01*
X168357965Y-91497107D01*
X168484946Y-91663320D01*
X169600400Y-91663320D01*
X169600400Y-90710320D01*
X169270400Y-90710320D01*
X169062143Y-90755848D01*
X168866769Y-90841130D01*
X168691787Y-90962889D01*
X168543921Y-91116446D01*
X168428854Y-91295900D01*
X168357965Y-91497107D01*
X141660000Y-91497107D01*
X141660000Y-83100780D01*
X141981169Y-83100780D01*
X141944463Y-83145506D01*
G37*
%TD.AperFunction*%
%TD*%
M02*
