%TF.GenerationSoftware,KiCad,Pcbnew,5.1.7-a382d34a8~87~ubuntu20.04.1*%
%TF.CreationDate,2020-11-25T21:12:42+01:00*%
%TF.ProjectId,gd32f150,67643332-6631-4353-902e-6b696361645f,rev?*%
%TF.SameCoordinates,Original*%
%TF.FileFunction,Legend,Top*%
%TF.FilePolarity,Positive*%
%FSLAX46Y46*%
G04 Gerber Fmt 4.6, Leading zero omitted, Abs format (unit mm)*
G04 Created by KiCad (PCBNEW 5.1.7-a382d34a8~87~ubuntu20.04.1) date 2020-11-25 21:12:42*
%MOMM*%
%LPD*%
G01*
G04 APERTURE LIST*
%ADD10C,0.150000*%
%ADD11C,0.120000*%
G04 APERTURE END LIST*
D10*
X169929761Y-104315476D02*
X169977380Y-104172619D01*
X169977380Y-103934523D01*
X169929761Y-103839285D01*
X169882142Y-103791666D01*
X169786904Y-103744047D01*
X169691666Y-103744047D01*
X169596428Y-103791666D01*
X169548809Y-103839285D01*
X169501190Y-103934523D01*
X169453571Y-104125000D01*
X169405952Y-104220238D01*
X169358333Y-104267857D01*
X169263095Y-104315476D01*
X169167857Y-104315476D01*
X169072619Y-104267857D01*
X169025000Y-104220238D01*
X168977380Y-104125000D01*
X168977380Y-103886904D01*
X169025000Y-103744047D01*
X169882142Y-102744047D02*
X169929761Y-102791666D01*
X169977380Y-102934523D01*
X169977380Y-103029761D01*
X169929761Y-103172619D01*
X169834523Y-103267857D01*
X169739285Y-103315476D01*
X169548809Y-103363095D01*
X169405952Y-103363095D01*
X169215476Y-103315476D01*
X169120238Y-103267857D01*
X169025000Y-103172619D01*
X168977380Y-103029761D01*
X168977380Y-102934523D01*
X169025000Y-102791666D01*
X169072619Y-102744047D01*
X169977380Y-101839285D02*
X169977380Y-102315476D01*
X168977380Y-102315476D01*
X166150000Y-88036904D02*
X166102380Y-88132142D01*
X166102380Y-88275000D01*
X166150000Y-88417857D01*
X166245238Y-88513095D01*
X166340476Y-88560714D01*
X166530952Y-88608333D01*
X166673809Y-88608333D01*
X166864285Y-88560714D01*
X166959523Y-88513095D01*
X167054761Y-88417857D01*
X167102380Y-88275000D01*
X167102380Y-88179761D01*
X167054761Y-88036904D01*
X167007142Y-87989285D01*
X166673809Y-87989285D01*
X166673809Y-88179761D01*
X167102380Y-87560714D02*
X166102380Y-87560714D01*
X167102380Y-86989285D01*
X166102380Y-86989285D01*
X167102380Y-86513095D02*
X166102380Y-86513095D01*
X166102380Y-86275000D01*
X166150000Y-86132142D01*
X166245238Y-86036904D01*
X166340476Y-85989285D01*
X166530952Y-85941666D01*
X166673809Y-85941666D01*
X166864285Y-85989285D01*
X166959523Y-86036904D01*
X167054761Y-86132142D01*
X167102380Y-86275000D01*
X167102380Y-86513095D01*
X168202380Y-87065476D02*
X168202380Y-87541666D01*
X168678571Y-87589285D01*
X168630952Y-87541666D01*
X168583333Y-87446428D01*
X168583333Y-87208333D01*
X168630952Y-87113095D01*
X168678571Y-87065476D01*
X168773809Y-87017857D01*
X169011904Y-87017857D01*
X169107142Y-87065476D01*
X169154761Y-87113095D01*
X169202380Y-87208333D01*
X169202380Y-87446428D01*
X169154761Y-87541666D01*
X169107142Y-87589285D01*
X168202380Y-86732142D02*
X169202380Y-86398809D01*
X168202380Y-86065476D01*
X162517857Y-86779761D02*
X162660714Y-86827380D01*
X162898809Y-86827380D01*
X162994047Y-86779761D01*
X163041666Y-86732142D01*
X163089285Y-86636904D01*
X163089285Y-86541666D01*
X163041666Y-86446428D01*
X162994047Y-86398809D01*
X162898809Y-86351190D01*
X162708333Y-86303571D01*
X162613095Y-86255952D01*
X162565476Y-86208333D01*
X162517857Y-86113095D01*
X162517857Y-86017857D01*
X162565476Y-85922619D01*
X162613095Y-85875000D01*
X162708333Y-85827380D01*
X162946428Y-85827380D01*
X163089285Y-85875000D01*
X163422619Y-85827380D02*
X163660714Y-86827380D01*
X163851190Y-86113095D01*
X164041666Y-86827380D01*
X164279761Y-85827380D01*
X164660714Y-86827380D02*
X164660714Y-85827380D01*
X164898809Y-85827380D01*
X165041666Y-85875000D01*
X165136904Y-85970238D01*
X165184523Y-86065476D01*
X165232142Y-86255952D01*
X165232142Y-86398809D01*
X165184523Y-86589285D01*
X165136904Y-86684523D01*
X165041666Y-86779761D01*
X164898809Y-86827380D01*
X164660714Y-86827380D01*
X160479761Y-88582142D02*
X160527380Y-88439285D01*
X160527380Y-88201190D01*
X160479761Y-88105952D01*
X160432142Y-88058333D01*
X160336904Y-88010714D01*
X160241666Y-88010714D01*
X160146428Y-88058333D01*
X160098809Y-88105952D01*
X160051190Y-88201190D01*
X160003571Y-88391666D01*
X159955952Y-88486904D01*
X159908333Y-88534523D01*
X159813095Y-88582142D01*
X159717857Y-88582142D01*
X159622619Y-88534523D01*
X159575000Y-88486904D01*
X159527380Y-88391666D01*
X159527380Y-88153571D01*
X159575000Y-88010714D01*
X159527380Y-87677380D02*
X160527380Y-87439285D01*
X159813095Y-87248809D01*
X160527380Y-87058333D01*
X159527380Y-86820238D01*
X160432142Y-85867857D02*
X160479761Y-85915476D01*
X160527380Y-86058333D01*
X160527380Y-86153571D01*
X160479761Y-86296428D01*
X160384523Y-86391666D01*
X160289285Y-86439285D01*
X160098809Y-86486904D01*
X159955952Y-86486904D01*
X159765476Y-86439285D01*
X159670238Y-86391666D01*
X159575000Y-86296428D01*
X159527380Y-86153571D01*
X159527380Y-86058333D01*
X159575000Y-85915476D01*
X159622619Y-85867857D01*
X158857142Y-86916666D02*
X158904761Y-86964285D01*
X158952380Y-87107142D01*
X158952380Y-87202380D01*
X158904761Y-87345238D01*
X158809523Y-87440476D01*
X158714285Y-87488095D01*
X158523809Y-87535714D01*
X158380952Y-87535714D01*
X158190476Y-87488095D01*
X158095238Y-87440476D01*
X158000000Y-87345238D01*
X157952380Y-87202380D01*
X157952380Y-87107142D01*
X158000000Y-86964285D01*
X158047619Y-86916666D01*
X158904761Y-86535714D02*
X158952380Y-86392857D01*
X158952380Y-86154761D01*
X158904761Y-86059523D01*
X158857142Y-86011904D01*
X158761904Y-85964285D01*
X158666666Y-85964285D01*
X158571428Y-86011904D01*
X158523809Y-86059523D01*
X158476190Y-86154761D01*
X158428571Y-86345238D01*
X158380952Y-86440476D01*
X158333333Y-86488095D01*
X158238095Y-86535714D01*
X158142857Y-86535714D01*
X158047619Y-86488095D01*
X158000000Y-86440476D01*
X157952380Y-86345238D01*
X157952380Y-86107142D01*
X158000000Y-85964285D01*
X156404761Y-88510714D02*
X156452380Y-88367857D01*
X156452380Y-88129761D01*
X156404761Y-88034523D01*
X156357142Y-87986904D01*
X156261904Y-87939285D01*
X156166666Y-87939285D01*
X156071428Y-87986904D01*
X156023809Y-88034523D01*
X155976190Y-88129761D01*
X155928571Y-88320238D01*
X155880952Y-88415476D01*
X155833333Y-88463095D01*
X155738095Y-88510714D01*
X155642857Y-88510714D01*
X155547619Y-88463095D01*
X155500000Y-88415476D01*
X155452380Y-88320238D01*
X155452380Y-88082142D01*
X155500000Y-87939285D01*
X156357142Y-86939285D02*
X156404761Y-86986904D01*
X156452380Y-87129761D01*
X156452380Y-87225000D01*
X156404761Y-87367857D01*
X156309523Y-87463095D01*
X156214285Y-87510714D01*
X156023809Y-87558333D01*
X155880952Y-87558333D01*
X155690476Y-87510714D01*
X155595238Y-87463095D01*
X155500000Y-87367857D01*
X155452380Y-87225000D01*
X155452380Y-87129761D01*
X155500000Y-86986904D01*
X155547619Y-86939285D01*
X156452380Y-86510714D02*
X155452380Y-86510714D01*
X156452380Y-85939285D02*
X155880952Y-86367857D01*
X155452380Y-85939285D02*
X156023809Y-86510714D01*
X153977380Y-89246428D02*
X152977380Y-89246428D01*
X153691666Y-88913095D01*
X152977380Y-88579761D01*
X153977380Y-88579761D01*
X153977380Y-88103571D02*
X152977380Y-88103571D01*
X153929761Y-87675000D02*
X153977380Y-87532142D01*
X153977380Y-87294047D01*
X153929761Y-87198809D01*
X153882142Y-87151190D01*
X153786904Y-87103571D01*
X153691666Y-87103571D01*
X153596428Y-87151190D01*
X153548809Y-87198809D01*
X153501190Y-87294047D01*
X153453571Y-87484523D01*
X153405952Y-87579761D01*
X153358333Y-87627380D01*
X153263095Y-87675000D01*
X153167857Y-87675000D01*
X153072619Y-87627380D01*
X153025000Y-87579761D01*
X152977380Y-87484523D01*
X152977380Y-87246428D01*
X153025000Y-87103571D01*
X152977380Y-86484523D02*
X152977380Y-86294047D01*
X153025000Y-86198809D01*
X153120238Y-86103571D01*
X153310714Y-86055952D01*
X153644047Y-86055952D01*
X153834523Y-86103571D01*
X153929761Y-86198809D01*
X153977380Y-86294047D01*
X153977380Y-86484523D01*
X153929761Y-86579761D01*
X153834523Y-86675000D01*
X153644047Y-86722619D01*
X153310714Y-86722619D01*
X153120238Y-86675000D01*
X153025000Y-86579761D01*
X152977380Y-86484523D01*
X151477380Y-89046428D02*
X150477380Y-89046428D01*
X151191666Y-88713095D01*
X150477380Y-88379761D01*
X151477380Y-88379761D01*
X150477380Y-87713095D02*
X150477380Y-87522619D01*
X150525000Y-87427380D01*
X150620238Y-87332142D01*
X150810714Y-87284523D01*
X151144047Y-87284523D01*
X151334523Y-87332142D01*
X151429761Y-87427380D01*
X151477380Y-87522619D01*
X151477380Y-87713095D01*
X151429761Y-87808333D01*
X151334523Y-87903571D01*
X151144047Y-87951190D01*
X150810714Y-87951190D01*
X150620238Y-87903571D01*
X150525000Y-87808333D01*
X150477380Y-87713095D01*
X151429761Y-86903571D02*
X151477380Y-86760714D01*
X151477380Y-86522619D01*
X151429761Y-86427380D01*
X151382142Y-86379761D01*
X151286904Y-86332142D01*
X151191666Y-86332142D01*
X151096428Y-86379761D01*
X151048809Y-86427380D01*
X151001190Y-86522619D01*
X150953571Y-86713095D01*
X150905952Y-86808333D01*
X150858333Y-86855952D01*
X150763095Y-86903571D01*
X150667857Y-86903571D01*
X150572619Y-86855952D01*
X150525000Y-86808333D01*
X150477380Y-86713095D01*
X150477380Y-86475000D01*
X150525000Y-86332142D01*
X151477380Y-85903571D02*
X150477380Y-85903571D01*
X148852380Y-87198809D02*
X147852380Y-87198809D01*
X147852380Y-86532142D02*
X147852380Y-86341666D01*
X147900000Y-86246428D01*
X147995238Y-86151190D01*
X148185714Y-86103571D01*
X148519047Y-86103571D01*
X148709523Y-86151190D01*
X148804761Y-86246428D01*
X148852380Y-86341666D01*
X148852380Y-86532142D01*
X148804761Y-86627380D01*
X148709523Y-86722619D01*
X148519047Y-86770238D01*
X148185714Y-86770238D01*
X147995238Y-86722619D01*
X147900000Y-86627380D01*
X147852380Y-86532142D01*
X146352380Y-87173809D02*
X145352380Y-87173809D01*
X145352380Y-86507142D02*
X145352380Y-86316666D01*
X145400000Y-86221428D01*
X145495238Y-86126190D01*
X145685714Y-86078571D01*
X146019047Y-86078571D01*
X146209523Y-86126190D01*
X146304761Y-86221428D01*
X146352380Y-86316666D01*
X146352380Y-86507142D01*
X146304761Y-86602380D01*
X146209523Y-86697619D01*
X146019047Y-86745238D01*
X145685714Y-86745238D01*
X145495238Y-86697619D01*
X145400000Y-86602380D01*
X145352380Y-86507142D01*
X143328571Y-89132142D02*
X143376190Y-88989285D01*
X143423809Y-88941666D01*
X143519047Y-88894047D01*
X143661904Y-88894047D01*
X143757142Y-88941666D01*
X143804761Y-88989285D01*
X143852380Y-89084523D01*
X143852380Y-89465476D01*
X142852380Y-89465476D01*
X142852380Y-89132142D01*
X142900000Y-89036904D01*
X142947619Y-88989285D01*
X143042857Y-88941666D01*
X143138095Y-88941666D01*
X143233333Y-88989285D01*
X143280952Y-89036904D01*
X143328571Y-89132142D01*
X143328571Y-89465476D01*
X142852380Y-88275000D02*
X142852380Y-88084523D01*
X142900000Y-87989285D01*
X142995238Y-87894047D01*
X143185714Y-87846428D01*
X143519047Y-87846428D01*
X143709523Y-87894047D01*
X143804761Y-87989285D01*
X143852380Y-88084523D01*
X143852380Y-88275000D01*
X143804761Y-88370238D01*
X143709523Y-88465476D01*
X143519047Y-88513095D01*
X143185714Y-88513095D01*
X142995238Y-88465476D01*
X142900000Y-88370238D01*
X142852380Y-88275000D01*
X142852380Y-87227380D02*
X142852380Y-87036904D01*
X142900000Y-86941666D01*
X142995238Y-86846428D01*
X143185714Y-86798809D01*
X143519047Y-86798809D01*
X143709523Y-86846428D01*
X143804761Y-86941666D01*
X143852380Y-87036904D01*
X143852380Y-87227380D01*
X143804761Y-87322619D01*
X143709523Y-87417857D01*
X143519047Y-87465476D01*
X143185714Y-87465476D01*
X142995238Y-87417857D01*
X142900000Y-87322619D01*
X142852380Y-87227380D01*
X142852380Y-86513095D02*
X142852380Y-85941666D01*
X143852380Y-86227380D02*
X142852380Y-86227380D01*
X161302380Y-104323809D02*
X160302380Y-104323809D01*
X160302380Y-103657142D02*
X160302380Y-103466666D01*
X160350000Y-103371428D01*
X160445238Y-103276190D01*
X160635714Y-103228571D01*
X160969047Y-103228571D01*
X161159523Y-103276190D01*
X161254761Y-103371428D01*
X161302380Y-103466666D01*
X161302380Y-103657142D01*
X161254761Y-103752380D01*
X161159523Y-103847619D01*
X160969047Y-103895238D01*
X160635714Y-103895238D01*
X160445238Y-103847619D01*
X160350000Y-103752380D01*
X160302380Y-103657142D01*
X158827380Y-104348809D02*
X157827380Y-104348809D01*
X157827380Y-103682142D02*
X157827380Y-103491666D01*
X157875000Y-103396428D01*
X157970238Y-103301190D01*
X158160714Y-103253571D01*
X158494047Y-103253571D01*
X158684523Y-103301190D01*
X158779761Y-103396428D01*
X158827380Y-103491666D01*
X158827380Y-103682142D01*
X158779761Y-103777380D01*
X158684523Y-103872619D01*
X158494047Y-103920238D01*
X158160714Y-103920238D01*
X157970238Y-103872619D01*
X157875000Y-103777380D01*
X157827380Y-103682142D01*
X156527380Y-104248809D02*
X155527380Y-104248809D01*
X155527380Y-103582142D02*
X155527380Y-103391666D01*
X155575000Y-103296428D01*
X155670238Y-103201190D01*
X155860714Y-103153571D01*
X156194047Y-103153571D01*
X156384523Y-103201190D01*
X156479761Y-103296428D01*
X156527380Y-103391666D01*
X156527380Y-103582142D01*
X156479761Y-103677380D01*
X156384523Y-103772619D01*
X156194047Y-103820238D01*
X155860714Y-103820238D01*
X155670238Y-103772619D01*
X155575000Y-103677380D01*
X155527380Y-103582142D01*
X152902380Y-104386904D02*
X153711904Y-104386904D01*
X153807142Y-104339285D01*
X153854761Y-104291666D01*
X153902380Y-104196428D01*
X153902380Y-104005952D01*
X153854761Y-103910714D01*
X153807142Y-103863095D01*
X153711904Y-103815476D01*
X152902380Y-103815476D01*
X153902380Y-102767857D02*
X153426190Y-103101190D01*
X153902380Y-103339285D02*
X152902380Y-103339285D01*
X152902380Y-102958333D01*
X152950000Y-102863095D01*
X152997619Y-102815476D01*
X153092857Y-102767857D01*
X153235714Y-102767857D01*
X153330952Y-102815476D01*
X153378571Y-102863095D01*
X153426190Y-102958333D01*
X153426190Y-103339285D01*
X152902380Y-102434523D02*
X153902380Y-101767857D01*
X152902380Y-101767857D02*
X153902380Y-102434523D01*
X150452380Y-104217857D02*
X151261904Y-104217857D01*
X151357142Y-104170238D01*
X151404761Y-104122619D01*
X151452380Y-104027380D01*
X151452380Y-103836904D01*
X151404761Y-103741666D01*
X151357142Y-103694047D01*
X151261904Y-103646428D01*
X150452380Y-103646428D01*
X150452380Y-103313095D02*
X150452380Y-102741666D01*
X151452380Y-103027380D02*
X150452380Y-103027380D01*
X150452380Y-102503571D02*
X151452380Y-101836904D01*
X150452380Y-101836904D02*
X151452380Y-102503571D01*
X147877380Y-104242857D02*
X148686904Y-104242857D01*
X148782142Y-104195238D01*
X148829761Y-104147619D01*
X148877380Y-104052380D01*
X148877380Y-103861904D01*
X148829761Y-103766666D01*
X148782142Y-103719047D01*
X148686904Y-103671428D01*
X147877380Y-103671428D01*
X148877380Y-102623809D02*
X148401190Y-102957142D01*
X148877380Y-103195238D02*
X147877380Y-103195238D01*
X147877380Y-102814285D01*
X147925000Y-102719047D01*
X147972619Y-102671428D01*
X148067857Y-102623809D01*
X148210714Y-102623809D01*
X148305952Y-102671428D01*
X148353571Y-102719047D01*
X148401190Y-102814285D01*
X148401190Y-103195238D01*
X147877380Y-102338095D02*
X147877380Y-101766666D01*
X148877380Y-102052380D02*
X147877380Y-102052380D01*
X148829761Y-101480952D02*
X148877380Y-101338095D01*
X148877380Y-101100000D01*
X148829761Y-101004761D01*
X148782142Y-100957142D01*
X148686904Y-100909523D01*
X148591666Y-100909523D01*
X148496428Y-100957142D01*
X148448809Y-101004761D01*
X148401190Y-101100000D01*
X148353571Y-101290476D01*
X148305952Y-101385714D01*
X148258333Y-101433333D01*
X148163095Y-101480952D01*
X148067857Y-101480952D01*
X147972619Y-101433333D01*
X147925000Y-101385714D01*
X147877380Y-101290476D01*
X147877380Y-101052380D01*
X147925000Y-100909523D01*
X145277380Y-104117857D02*
X146086904Y-104117857D01*
X146182142Y-104070238D01*
X146229761Y-104022619D01*
X146277380Y-103927380D01*
X146277380Y-103736904D01*
X146229761Y-103641666D01*
X146182142Y-103594047D01*
X146086904Y-103546428D01*
X145277380Y-103546428D01*
X146182142Y-102498809D02*
X146229761Y-102546428D01*
X146277380Y-102689285D01*
X146277380Y-102784523D01*
X146229761Y-102927380D01*
X146134523Y-103022619D01*
X146039285Y-103070238D01*
X145848809Y-103117857D01*
X145705952Y-103117857D01*
X145515476Y-103070238D01*
X145420238Y-103022619D01*
X145325000Y-102927380D01*
X145277380Y-102784523D01*
X145277380Y-102689285D01*
X145325000Y-102546428D01*
X145372619Y-102498809D01*
X145277380Y-102213095D02*
X145277380Y-101641666D01*
X146277380Y-101927380D02*
X145277380Y-101927380D01*
X146229761Y-101355952D02*
X146277380Y-101213095D01*
X146277380Y-100975000D01*
X146229761Y-100879761D01*
X146182142Y-100832142D01*
X146086904Y-100784523D01*
X145991666Y-100784523D01*
X145896428Y-100832142D01*
X145848809Y-100879761D01*
X145801190Y-100975000D01*
X145753571Y-101165476D01*
X145705952Y-101260714D01*
X145658333Y-101308333D01*
X145563095Y-101355952D01*
X145467857Y-101355952D01*
X145372619Y-101308333D01*
X145325000Y-101260714D01*
X145277380Y-101165476D01*
X145277380Y-100927380D01*
X145325000Y-100784523D01*
X143802380Y-104192857D02*
X142802380Y-104192857D01*
X143802380Y-103621428D01*
X142802380Y-103621428D01*
X143802380Y-102573809D02*
X143326190Y-102907142D01*
X143802380Y-103145238D02*
X142802380Y-103145238D01*
X142802380Y-102764285D01*
X142850000Y-102669047D01*
X142897619Y-102621428D01*
X142992857Y-102573809D01*
X143135714Y-102573809D01*
X143230952Y-102621428D01*
X143278571Y-102669047D01*
X143326190Y-102764285D01*
X143326190Y-103145238D01*
X143754761Y-102192857D02*
X143802380Y-102050000D01*
X143802380Y-101811904D01*
X143754761Y-101716666D01*
X143707142Y-101669047D01*
X143611904Y-101621428D01*
X143516666Y-101621428D01*
X143421428Y-101669047D01*
X143373809Y-101716666D01*
X143326190Y-101811904D01*
X143278571Y-102002380D01*
X143230952Y-102097619D01*
X143183333Y-102145238D01*
X143088095Y-102192857D01*
X142992857Y-102192857D01*
X142897619Y-102145238D01*
X142850000Y-102097619D01*
X142802380Y-102002380D01*
X142802380Y-101764285D01*
X142850000Y-101621428D01*
X142802380Y-101335714D02*
X142802380Y-100764285D01*
X143802380Y-101050000D02*
X142802380Y-101050000D01*
D11*
%TO.C,J4*%
X170055000Y-85680000D02*
X170055000Y-83020000D01*
X144595000Y-85680000D02*
X170055000Y-85680000D01*
X144595000Y-83020000D02*
X170055000Y-83020000D01*
X144595000Y-85680000D02*
X144595000Y-83020000D01*
X143325000Y-85680000D02*
X141995000Y-85680000D01*
X141995000Y-85680000D02*
X141995000Y-84350000D01*
%TO.C,J3*%
X170055000Y-107230000D02*
X170055000Y-104570000D01*
X144595000Y-107230000D02*
X170055000Y-107230000D01*
X144595000Y-104570000D02*
X170055000Y-104570000D01*
X144595000Y-107230000D02*
X144595000Y-104570000D01*
X143325000Y-107230000D02*
X141995000Y-107230000D01*
X141995000Y-107230000D02*
X141995000Y-105900000D01*
%TO.C,R5*%
X164042224Y-102727500D02*
X163532776Y-102727500D01*
X164042224Y-103772500D02*
X163532776Y-103772500D01*
%TO.C,R4*%
X166895276Y-103772500D02*
X167404724Y-103772500D01*
X166895276Y-102727500D02*
X167404724Y-102727500D01*
%TO.C,U2*%
X165536520Y-101001080D02*
X165536520Y-98551080D01*
X162316520Y-99201080D02*
X162316520Y-101001080D01*
%TO.C,C6*%
X167390693Y-101060000D02*
X167683227Y-101060000D01*
X167390693Y-100040000D02*
X167683227Y-100040000D01*
%TO.C,C5*%
X164094207Y-96385600D02*
X163801673Y-96385600D01*
X164094207Y-97405600D02*
X163801673Y-97405600D01*
%TO.C,R3*%
X163442680Y-89596364D02*
X163442680Y-89086916D01*
X162397680Y-89596364D02*
X162397680Y-89086916D01*
%TO.C,R2*%
X164974300Y-89611604D02*
X164974300Y-89102156D01*
X163929300Y-89611604D02*
X163929300Y-89102156D01*
%TO.C,R1*%
X161857720Y-89582404D02*
X161857720Y-89072956D01*
X160812720Y-89582404D02*
X160812720Y-89072956D01*
%TO.C,USR2*%
X162165000Y-91065000D02*
X162165000Y-93525000D01*
X163635000Y-91065000D02*
X162165000Y-91065000D01*
X163635000Y-93525000D02*
X163635000Y-91065000D01*
%TO.C,USR1*%
X163715000Y-91065000D02*
X163715000Y-93525000D01*
X165185000Y-91065000D02*
X163715000Y-91065000D01*
X165185000Y-93525000D02*
X165185000Y-91065000D01*
%TO.C,PWR1*%
X160515540Y-91133380D02*
X160515540Y-93593380D01*
X161985540Y-91133380D02*
X160515540Y-91133380D01*
X161985540Y-93593380D02*
X161985540Y-91133380D01*
%TO.C,U1*%
X155262300Y-94083920D02*
X154462300Y-94083920D01*
X154712300Y-98383920D02*
X154712300Y-97833920D01*
X155262300Y-98383920D02*
X154712300Y-98383920D01*
X159012300Y-98383920D02*
X159012300Y-97833920D01*
X158462300Y-98383920D02*
X159012300Y-98383920D01*
X159012300Y-94083920D02*
X159012300Y-94633920D01*
X158462300Y-94083920D02*
X159012300Y-94083920D01*
%TO.C,J1*%
X168747400Y-91530320D02*
X166767400Y-91530320D01*
X166767400Y-91530320D02*
X166767400Y-91950320D01*
X170717400Y-91530320D02*
X171117400Y-91530320D01*
X171117400Y-99050320D02*
X170717400Y-99050320D01*
X168747400Y-99050320D02*
X166767400Y-99050320D01*
X166767400Y-99050320D02*
X166767400Y-98630320D01*
X166087400Y-96600320D02*
X166087400Y-97050320D01*
X166537400Y-97050320D02*
X166087400Y-97050320D01*
%TO.C,Y1*%
X146800080Y-90674540D02*
X146800080Y-96074540D01*
X151300080Y-90674540D02*
X146800080Y-90674540D01*
%TO.C,C4*%
X149832107Y-97988340D02*
X149539573Y-97988340D01*
X149832107Y-99008340D02*
X149539573Y-99008340D01*
%TO.C,C3*%
X159815000Y-100416233D02*
X159815000Y-100708767D01*
X160835000Y-100416233D02*
X160835000Y-100708767D01*
%TO.C,C2*%
X149529413Y-97484340D02*
X149821947Y-97484340D01*
X149529413Y-96464340D02*
X149821947Y-96464340D01*
%TO.C,C1*%
X146438080Y-93408227D02*
X146438080Y-93115693D01*
X145418080Y-93408227D02*
X145418080Y-93115693D01*
%TO.C,R5*%
D10*
X162127380Y-102066666D02*
X161651190Y-102400000D01*
X162127380Y-102638095D02*
X161127380Y-102638095D01*
X161127380Y-102257142D01*
X161175000Y-102161904D01*
X161222619Y-102114285D01*
X161317857Y-102066666D01*
X161460714Y-102066666D01*
X161555952Y-102114285D01*
X161603571Y-102161904D01*
X161651190Y-102257142D01*
X161651190Y-102638095D01*
X161127380Y-101161904D02*
X161127380Y-101638095D01*
X161603571Y-101685714D01*
X161555952Y-101638095D01*
X161508333Y-101542857D01*
X161508333Y-101304761D01*
X161555952Y-101209523D01*
X161603571Y-101161904D01*
X161698809Y-101114285D01*
X161936904Y-101114285D01*
X162032142Y-101161904D01*
X162079761Y-101209523D01*
X162127380Y-101304761D01*
X162127380Y-101542857D01*
X162079761Y-101638095D01*
X162032142Y-101685714D01*
%TO.C,R4*%
X167433333Y-102402380D02*
X167100000Y-101926190D01*
X166861904Y-102402380D02*
X166861904Y-101402380D01*
X167242857Y-101402380D01*
X167338095Y-101450000D01*
X167385714Y-101497619D01*
X167433333Y-101592857D01*
X167433333Y-101735714D01*
X167385714Y-101830952D01*
X167338095Y-101878571D01*
X167242857Y-101926190D01*
X166861904Y-101926190D01*
X168290476Y-101735714D02*
X168290476Y-102402380D01*
X168052380Y-101354761D02*
X167814285Y-102069047D01*
X168433333Y-102069047D01*
%TO.C,C6*%
X170083333Y-100757142D02*
X170035714Y-100804761D01*
X169892857Y-100852380D01*
X169797619Y-100852380D01*
X169654761Y-100804761D01*
X169559523Y-100709523D01*
X169511904Y-100614285D01*
X169464285Y-100423809D01*
X169464285Y-100280952D01*
X169511904Y-100090476D01*
X169559523Y-99995238D01*
X169654761Y-99900000D01*
X169797619Y-99852380D01*
X169892857Y-99852380D01*
X170035714Y-99900000D01*
X170083333Y-99947619D01*
X170940476Y-99852380D02*
X170750000Y-99852380D01*
X170654761Y-99900000D01*
X170607142Y-99947619D01*
X170511904Y-100090476D01*
X170464285Y-100280952D01*
X170464285Y-100661904D01*
X170511904Y-100757142D01*
X170559523Y-100804761D01*
X170654761Y-100852380D01*
X170845238Y-100852380D01*
X170940476Y-100804761D01*
X170988095Y-100757142D01*
X171035714Y-100661904D01*
X171035714Y-100423809D01*
X170988095Y-100328571D01*
X170940476Y-100280952D01*
X170845238Y-100233333D01*
X170654761Y-100233333D01*
X170559523Y-100280952D01*
X170511904Y-100328571D01*
X170464285Y-100423809D01*
%TO.C,C5*%
X160233333Y-97257142D02*
X160185714Y-97304761D01*
X160042857Y-97352380D01*
X159947619Y-97352380D01*
X159804761Y-97304761D01*
X159709523Y-97209523D01*
X159661904Y-97114285D01*
X159614285Y-96923809D01*
X159614285Y-96780952D01*
X159661904Y-96590476D01*
X159709523Y-96495238D01*
X159804761Y-96400000D01*
X159947619Y-96352380D01*
X160042857Y-96352380D01*
X160185714Y-96400000D01*
X160233333Y-96447619D01*
X161138095Y-96352380D02*
X160661904Y-96352380D01*
X160614285Y-96828571D01*
X160661904Y-96780952D01*
X160757142Y-96733333D01*
X160995238Y-96733333D01*
X161090476Y-96780952D01*
X161138095Y-96828571D01*
X161185714Y-96923809D01*
X161185714Y-97161904D01*
X161138095Y-97257142D01*
X161090476Y-97304761D01*
X160995238Y-97352380D01*
X160757142Y-97352380D01*
X160661904Y-97304761D01*
X160614285Y-97257142D01*
%TO.C,R3*%
X167852380Y-90016666D02*
X167376190Y-90350000D01*
X167852380Y-90588095D02*
X166852380Y-90588095D01*
X166852380Y-90207142D01*
X166900000Y-90111904D01*
X166947619Y-90064285D01*
X167042857Y-90016666D01*
X167185714Y-90016666D01*
X167280952Y-90064285D01*
X167328571Y-90111904D01*
X167376190Y-90207142D01*
X167376190Y-90588095D01*
X166852380Y-89683333D02*
X166852380Y-89064285D01*
X167233333Y-89397619D01*
X167233333Y-89254761D01*
X167280952Y-89159523D01*
X167328571Y-89111904D01*
X167423809Y-89064285D01*
X167661904Y-89064285D01*
X167757142Y-89111904D01*
X167804761Y-89159523D01*
X167852380Y-89254761D01*
X167852380Y-89540476D01*
X167804761Y-89635714D01*
X167757142Y-89683333D01*
%TO.C,R2*%
X169177380Y-90066666D02*
X168701190Y-90400000D01*
X169177380Y-90638095D02*
X168177380Y-90638095D01*
X168177380Y-90257142D01*
X168225000Y-90161904D01*
X168272619Y-90114285D01*
X168367857Y-90066666D01*
X168510714Y-90066666D01*
X168605952Y-90114285D01*
X168653571Y-90161904D01*
X168701190Y-90257142D01*
X168701190Y-90638095D01*
X168272619Y-89685714D02*
X168225000Y-89638095D01*
X168177380Y-89542857D01*
X168177380Y-89304761D01*
X168225000Y-89209523D01*
X168272619Y-89161904D01*
X168367857Y-89114285D01*
X168463095Y-89114285D01*
X168605952Y-89161904D01*
X169177380Y-89733333D01*
X169177380Y-89114285D01*
%TO.C,R1*%
X166402380Y-90091666D02*
X165926190Y-90425000D01*
X166402380Y-90663095D02*
X165402380Y-90663095D01*
X165402380Y-90282142D01*
X165450000Y-90186904D01*
X165497619Y-90139285D01*
X165592857Y-90091666D01*
X165735714Y-90091666D01*
X165830952Y-90139285D01*
X165878571Y-90186904D01*
X165926190Y-90282142D01*
X165926190Y-90663095D01*
X166402380Y-89139285D02*
X166402380Y-89710714D01*
X166402380Y-89425000D02*
X165402380Y-89425000D01*
X165545238Y-89520238D01*
X165640476Y-89615476D01*
X165688095Y-89710714D01*
%TO.C,USR2*%
X157991880Y-92606675D02*
X158801404Y-92606675D01*
X158896642Y-92559056D01*
X158944261Y-92511437D01*
X158991880Y-92416199D01*
X158991880Y-92225722D01*
X158944261Y-92130484D01*
X158896642Y-92082865D01*
X158801404Y-92035246D01*
X157991880Y-92035246D01*
X158944261Y-91606675D02*
X158991880Y-91463818D01*
X158991880Y-91225722D01*
X158944261Y-91130484D01*
X158896642Y-91082865D01*
X158801404Y-91035246D01*
X158706166Y-91035246D01*
X158610928Y-91082865D01*
X158563309Y-91130484D01*
X158515690Y-91225722D01*
X158468071Y-91416199D01*
X158420452Y-91511437D01*
X158372833Y-91559056D01*
X158277595Y-91606675D01*
X158182357Y-91606675D01*
X158087119Y-91559056D01*
X158039500Y-91511437D01*
X157991880Y-91416199D01*
X157991880Y-91178103D01*
X158039500Y-91035246D01*
X158991880Y-90035246D02*
X158515690Y-90368580D01*
X158991880Y-90606675D02*
X157991880Y-90606675D01*
X157991880Y-90225722D01*
X158039500Y-90130484D01*
X158087119Y-90082865D01*
X158182357Y-90035246D01*
X158325214Y-90035246D01*
X158420452Y-90082865D01*
X158468071Y-90130484D01*
X158515690Y-90225722D01*
X158515690Y-90606675D01*
X158087119Y-89654294D02*
X158039500Y-89606675D01*
X157991880Y-89511437D01*
X157991880Y-89273341D01*
X158039500Y-89178103D01*
X158087119Y-89130484D01*
X158182357Y-89082865D01*
X158277595Y-89082865D01*
X158420452Y-89130484D01*
X158991880Y-89701913D01*
X158991880Y-89082865D01*
%TO.C,USR1*%
X159336600Y-92554075D02*
X160146124Y-92554075D01*
X160241362Y-92506456D01*
X160288981Y-92458837D01*
X160336600Y-92363599D01*
X160336600Y-92173122D01*
X160288981Y-92077884D01*
X160241362Y-92030265D01*
X160146124Y-91982646D01*
X159336600Y-91982646D01*
X160288981Y-91554075D02*
X160336600Y-91411218D01*
X160336600Y-91173122D01*
X160288981Y-91077884D01*
X160241362Y-91030265D01*
X160146124Y-90982646D01*
X160050886Y-90982646D01*
X159955648Y-91030265D01*
X159908029Y-91077884D01*
X159860410Y-91173122D01*
X159812791Y-91363599D01*
X159765172Y-91458837D01*
X159717553Y-91506456D01*
X159622315Y-91554075D01*
X159527077Y-91554075D01*
X159431839Y-91506456D01*
X159384220Y-91458837D01*
X159336600Y-91363599D01*
X159336600Y-91125503D01*
X159384220Y-90982646D01*
X160336600Y-89982646D02*
X159860410Y-90315980D01*
X160336600Y-90554075D02*
X159336600Y-90554075D01*
X159336600Y-90173122D01*
X159384220Y-90077884D01*
X159431839Y-90030265D01*
X159527077Y-89982646D01*
X159669934Y-89982646D01*
X159765172Y-90030265D01*
X159812791Y-90077884D01*
X159860410Y-90173122D01*
X159860410Y-90554075D01*
X160336600Y-89030265D02*
X160336600Y-89601694D01*
X160336600Y-89315980D02*
X159336600Y-89315980D01*
X159479458Y-89411218D01*
X159574696Y-89506456D01*
X159622315Y-89601694D01*
%TO.C,PWR1*%
X157452380Y-92709523D02*
X156452380Y-92709523D01*
X156452380Y-92328571D01*
X156500000Y-92233333D01*
X156547619Y-92185714D01*
X156642857Y-92138095D01*
X156785714Y-92138095D01*
X156880952Y-92185714D01*
X156928571Y-92233333D01*
X156976190Y-92328571D01*
X156976190Y-92709523D01*
X156452380Y-91804761D02*
X157452380Y-91566666D01*
X156738095Y-91376190D01*
X157452380Y-91185714D01*
X156452380Y-90947619D01*
X157452380Y-89995238D02*
X156976190Y-90328571D01*
X157452380Y-90566666D02*
X156452380Y-90566666D01*
X156452380Y-90185714D01*
X156500000Y-90090476D01*
X156547619Y-90042857D01*
X156642857Y-89995238D01*
X156785714Y-89995238D01*
X156880952Y-90042857D01*
X156928571Y-90090476D01*
X156976190Y-90185714D01*
X156976190Y-90566666D01*
X157452380Y-89042857D02*
X157452380Y-89614285D01*
X157452380Y-89328571D02*
X156452380Y-89328571D01*
X156595238Y-89423809D01*
X156690476Y-89519047D01*
X156738095Y-89614285D01*
%TO.C,U1*%
X152363095Y-94402380D02*
X152363095Y-95211904D01*
X152410714Y-95307142D01*
X152458333Y-95354761D01*
X152553571Y-95402380D01*
X152744047Y-95402380D01*
X152839285Y-95354761D01*
X152886904Y-95307142D01*
X152934523Y-95211904D01*
X152934523Y-94402380D01*
X153934523Y-95402380D02*
X153363095Y-95402380D01*
X153648809Y-95402380D02*
X153648809Y-94402380D01*
X153553571Y-94545238D01*
X153458333Y-94640476D01*
X153363095Y-94688095D01*
%TO.C,J1*%
X167727380Y-98133333D02*
X168441666Y-98133333D01*
X168584523Y-98180952D01*
X168679761Y-98276190D01*
X168727380Y-98419047D01*
X168727380Y-98514285D01*
X168727380Y-97133333D02*
X168727380Y-97704761D01*
X168727380Y-97419047D02*
X167727380Y-97419047D01*
X167870238Y-97514285D01*
X167965476Y-97609523D01*
X168013095Y-97704761D01*
%TO.C,Y1*%
X152134610Y-91447550D02*
X152610800Y-91447550D01*
X151610800Y-91780883D02*
X152134610Y-91447550D01*
X151610800Y-91114217D01*
X152610800Y-90257074D02*
X152610800Y-90828502D01*
X152610800Y-90542788D02*
X151610800Y-90542788D01*
X151753658Y-90638026D01*
X151848896Y-90733264D01*
X151896515Y-90828502D01*
%TO.C,C4*%
X146033333Y-98857142D02*
X145985714Y-98904761D01*
X145842857Y-98952380D01*
X145747619Y-98952380D01*
X145604761Y-98904761D01*
X145509523Y-98809523D01*
X145461904Y-98714285D01*
X145414285Y-98523809D01*
X145414285Y-98380952D01*
X145461904Y-98190476D01*
X145509523Y-98095238D01*
X145604761Y-98000000D01*
X145747619Y-97952380D01*
X145842857Y-97952380D01*
X145985714Y-98000000D01*
X146033333Y-98047619D01*
X146890476Y-98285714D02*
X146890476Y-98952380D01*
X146652380Y-97904761D02*
X146414285Y-98619047D01*
X147033333Y-98619047D01*
%TO.C,C3*%
X158383333Y-102007142D02*
X158335714Y-102054761D01*
X158192857Y-102102380D01*
X158097619Y-102102380D01*
X157954761Y-102054761D01*
X157859523Y-101959523D01*
X157811904Y-101864285D01*
X157764285Y-101673809D01*
X157764285Y-101530952D01*
X157811904Y-101340476D01*
X157859523Y-101245238D01*
X157954761Y-101150000D01*
X158097619Y-101102380D01*
X158192857Y-101102380D01*
X158335714Y-101150000D01*
X158383333Y-101197619D01*
X158716666Y-101102380D02*
X159335714Y-101102380D01*
X159002380Y-101483333D01*
X159145238Y-101483333D01*
X159240476Y-101530952D01*
X159288095Y-101578571D01*
X159335714Y-101673809D01*
X159335714Y-101911904D01*
X159288095Y-102007142D01*
X159240476Y-102054761D01*
X159145238Y-102102380D01*
X158859523Y-102102380D01*
X158764285Y-102054761D01*
X158716666Y-102007142D01*
%TO.C,C2*%
X146033333Y-97382142D02*
X145985714Y-97429761D01*
X145842857Y-97477380D01*
X145747619Y-97477380D01*
X145604761Y-97429761D01*
X145509523Y-97334523D01*
X145461904Y-97239285D01*
X145414285Y-97048809D01*
X145414285Y-96905952D01*
X145461904Y-96715476D01*
X145509523Y-96620238D01*
X145604761Y-96525000D01*
X145747619Y-96477380D01*
X145842857Y-96477380D01*
X145985714Y-96525000D01*
X146033333Y-96572619D01*
X146414285Y-96572619D02*
X146461904Y-96525000D01*
X146557142Y-96477380D01*
X146795238Y-96477380D01*
X146890476Y-96525000D01*
X146938095Y-96572619D01*
X146985714Y-96667857D01*
X146985714Y-96763095D01*
X146938095Y-96905952D01*
X146366666Y-97477380D01*
X146985714Y-97477380D01*
%TO.C,C1*%
X146269982Y-90768146D02*
X146317601Y-90815765D01*
X146365220Y-90958622D01*
X146365220Y-91053860D01*
X146317601Y-91196718D01*
X146222363Y-91291956D01*
X146127125Y-91339575D01*
X145936649Y-91387194D01*
X145793792Y-91387194D01*
X145603316Y-91339575D01*
X145508078Y-91291956D01*
X145412840Y-91196718D01*
X145365220Y-91053860D01*
X145365220Y-90958622D01*
X145412840Y-90815765D01*
X145460459Y-90768146D01*
X146365220Y-89815765D02*
X146365220Y-90387194D01*
X146365220Y-90101480D02*
X145365220Y-90101480D01*
X145508078Y-90196718D01*
X145603316Y-90291956D01*
X145650935Y-90387194D01*
%TD*%
M02*
