M48
; DRILL file {KiCad 5.1.7-a382d34a8~87~ubuntu20.04.1} date Wed Nov 25 21:12:46 2020
; FORMAT={-:-/ absolute / inch / decimal}
; #@! TF.CreationDate,2020-11-25T21:12:46+01:00
; #@! TF.GenerationSoftware,Kicad,Pcbnew,5.1.7-a382d34a8~87~ubuntu20.04.1
FMAT,2
INCH
T1C0.0157
T2C0.0197
T3C0.0217
T4C0.0394
%
G90
G05
T1
X5.6949Y-3.7106
X5.7549Y-3.7717
X5.8071Y-3.877
X5.8081Y-3.8169
X5.8848Y-3.9272
X5.9026Y-3.5453
X5.9843Y-3.8081
X6.031Y-3.8204
X6.1457Y-3.7667
X6.1476Y-3.814
X6.1978Y-3.7657
X6.1998Y-3.8159
X6.2235Y-3.9198
X6.2609Y-3.9203
X6.2992Y-3.6919
X6.3238Y-3.8652
X6.3258Y-4.0433
X6.3514Y-3.435
X6.3691Y-3.8061
X6.3907Y-3.7283
X6.4203Y-3.4321
X6.4557Y-3.9429
X6.4843Y-3.4331
X6.5069Y-3.7215
X6.5443Y-4.0079
X6.6811Y-3.9941
T4
X5.6427Y-4.1693
X5.7427Y-4.1693
X5.8427Y-4.1693
X5.9427Y-4.1693
X6.0427Y-4.1693
X6.1427Y-4.1693
X6.2427Y-4.1693
X6.3427Y-4.1693
X6.4427Y-4.1693
X6.5427Y-4.1693
X6.6427Y-4.1693
X5.6427Y-3.3209
X5.7427Y-3.3209
X5.8427Y-3.3209
X5.9427Y-3.3209
X6.0427Y-3.3209
X6.1427Y-3.3209
X6.2427Y-3.3209
X6.3427Y-3.3209
X6.4427Y-3.3209
X6.5427Y-3.3209
X6.6427Y-3.3209
T2
G00X6.6694Y-3.6138
M15
G01X6.695Y-3.6138
M16
G05
G00X6.6694Y-3.8894
M15
G01X6.695Y-3.8894
M16
G05
T3
G00X6.5759Y-3.6591
M15
G01X6.5759Y-3.6473
M16
G05
G00X6.5759Y-3.8559
M15
G01X6.5759Y-3.8441
M16
G05
T0
M30
